<svg width="65" height="65" viewBox="0 0 65 65" fill="none" xmlns="http://www.w3.org/2000/svg">
<g clip-path="url(#clip0_165_2)">
<path d="M59.7844 42.6651C55.8049 42.6651 51.8974 42.0426 48.1946 40.819C46.3802 40.2001 44.1497 40.7679 43.0424 41.9052L35.7338 47.4224C27.2579 42.898 22.0369 37.6787 17.5742 29.2664L22.9291 22.1482C24.3203 20.7589 24.8193 18.7293 24.2215 16.825C22.9926 13.1027 22.3683 9.19716 22.3683 5.21591C22.3685 2.33983 20.0286 0 17.1527 0H5.21574C2.33983 0 0 2.33983 0 5.21574C0 38.1812 26.8189 65 59.7844 65C62.6603 65 65.0002 62.6602 65.0002 59.7843V47.8806C65 45.0049 62.6602 42.6651 59.7844 42.6651Z" fill="#FFC62D"/>
</g>
<defs>
<clipPath id="clip0_165_2">
<rect width="65" height="65" fill="white"/>
</clipPath>
</defs>
</svg>
