<svg xmlns="http://www.w3.org/2000/svg" width="41" height="33" viewBox="0 0 41 33">
  <path d="M25.609,4.864 C25.6552431,4.87465189 25.702546,4.88000005 25.75,4.88000005 L25.916,4.88000005 C25.963454,4.88000005 26.0107569,4.87465189 26.057,4.864 C26.345,4.798 28.893,4.173 29.515,2.698 C29.7534322,2.11770441 29.6842992,1.45643275 29.331,0.938 C29.1521415,0.548991723 28.8248322,0.247897914 28.4222784,0.102061439 C28.0197246,-0.0437750357 27.5755144,-0.0221859736 27.189,0.162 C26.6100843,0.47117348 26.1373399,0.947053218 25.832,1.528 C25.5272917,0.947268133 25.0552493,0.471393619 24.477,0.162 C24.0904856,-0.0221859736 23.6462754,-0.0437750357 23.2437216,0.102061439 C22.8411678,0.247897914 22.5138585,0.548991723 22.335,0.938 C21.981876,1.45649694 21.9127525,2.11767786 22.151,2.698 C22.773,4.173 25.321,4.798 25.609,4.864 Z M27.716,1.303 C27.7638195,1.27715562 27.8167339,1.26213476 27.871,1.259 C27.971,1.259 28.097,1.327 28.259,1.592 C28.4001482,1.76543053 28.4382511,2.00090616 28.359,2.21 C27.8864344,2.82023055 27.2208308,3.25209735 26.471,3.435 C26.5692153,2.58110064 27.0207884,1.8074416 27.716,1.302 L27.716,1.303 Z M23.409,1.592 C23.571,1.327 23.696,1.259 23.797,1.259 C23.8512661,1.26213476 23.9041805,1.27715562 23.952,1.303 C24.6468249,1.80790098 25.0983682,2.5807835 25.197,3.434 C24.445,3.171 23.528,2.727 23.311,2.211 C23.2315369,2.00192768 23.2696574,1.76634323 23.411,1.593 L23.409,1.592 Z"/>
  <path d="M40.213,7.325 C40.213,7.307 40.213,7.289 40.207,7.272 C40.201,7.255 40.207,7.255 40.207,7.246 C40.207,7.237 40.199,7.22 40.195,7.207 C40.191,7.194 40.185,7.172 40.179,7.155 C40.173,7.138 40.173,7.138 40.17,7.13 C40.167,7.122 40.157,7.107 40.151,7.095 C40.145,7.083 40.134,7.062 40.124,7.046 C40.114,7.03 40.115,7.031 40.11,7.023 C40.105,7.015 40.093,7.003 40.085,6.992 C40.077,6.981 40.062,6.963 40.05,6.95 L40.03,6.929 L40.023,6.921 C40.014,6.913 40.004,6.907 39.996,6.9 C39.988,6.893 39.98,6.884 39.971,6.877 L34.11,2.477 C34.0000375,2.39488447 33.8662359,2.35098629 33.729,2.35198283 L30.429,2.35198283 C30.3995202,2.576069 30.3406817,2.79528426 30.254,3.004 C30.1627629,3.21737332 30.0459043,3.41885363 29.906,3.604 L33.518,3.604 L34.774,4.547 L28.884,4.547 C28.070075,5.06182514 27.1741924,5.43384131 26.235,5.647 C26.1303737,5.67104519 26.0233537,5.68312267 25.916,5.683 L25.75,5.683 C25.6423134,5.68317254 25.5349566,5.6710949 25.43,5.647 C24.4907539,5.43401015 23.5948434,5.0619824 22.781,4.547 L15.3,4.547 L14.088,3.604 L21.76,3.604 C21.6201122,3.41884265 21.5032549,3.21736443 21.412,3.004 C21.325672,2.795233 21.2671706,2.57602066 21.238,2.35198283 L11.938,2.35198283 C11.5911652,2.35198283 11.31,2.63316518 11.31,2.98 L11.31,19.866 C11.3101851,20.0794678 11.4186241,20.2782727 11.598,20.394 L17.568,24.246 C17.6692867,24.311493 17.7873838,24.3462275 17.908,24.346 L25.381,24.346 C23.344003,26.6328124 20.4264926,27.9396329 17.364,27.937 C12.4828709,27.9791451 8.20402829,24.6824877 7,19.952 L8.137,19.952 C8.38280014,19.952512 8.60630391,19.809575 8.70894014,19.5862283 C8.81157637,19.3628815 8.7744755,19.100187 8.614,18.914 L4.834,14.514 C4.71558522,14.3758178 4.54297685,14.2958998 4.361,14.295 C4.17875168,14.2922946 4.00472155,14.3706997 3.886,14.509 L0.156,18.752 C-0.00714830644,18.9372959 -0.0465919631,19.2009928 0.0551957132,19.4259177 C0.15698339,19.6508426 0.381115679,19.7952606 0.628,19.795 L1.952,19.795 C2.40525126,26.9623283 8.36138584,32.5371931 15.543,32.5160602 C20.9654609,32.50734 25.8741207,29.3058356 28.068,24.347 L39.59,24.347 C39.6333327,24.3471147 39.6765615,24.3427583 39.719,24.334 L39.736,24.329 C39.770268,24.3206284 39.803731,24.3092509 39.836,24.295 C39.848,24.29 39.86,24.282 39.872,24.276 C39.8980436,24.263569 39.9231145,24.2491951 39.947,24.233 C39.96,24.224 39.972,24.213 39.983,24.203 C40.0049222,24.1857722 40.0256374,24.1670617 40.045,24.147 C40.045,24.147 40.054,24.14 40.058,24.135 C40.062,24.13 40.072,24.115 40.08,24.105 C40.0940123,24.0874059 40.1070325,24.069044 40.119,24.05 C40.13,24.033 40.138,24.016 40.147,23.998 C40.1661573,23.9611892 40.1809251,23.9222559 40.191,23.882 C40.196,23.863 40.201,23.844 40.204,23.824 C40.2076053,23.8018179 40.2099424,23.7794483 40.211,23.757 C40.211,23.744 40.211,23.732 40.211,23.719 L40.211,7.379 C40.211,7.379 40.211,7.372 40.211,7.369 C40.211,7.366 40.215,7.34 40.213,7.325 Z M14.453,20.74 L12.568,19.523 L12.568,4.023 L14.453,5.489 L14.453,20.74 Z M15.707,21.549 C15.707,21.539 15.707,21.529 15.707,21.519 L15.707,6.465 L17.521,7.876 C17.543,7.893 17.593,22.768 17.593,22.768 L15.707,21.549 Z M16.913,5.809 L36.449,5.809 L37.705,6.752 C37.705,6.752 18.15,6.757 18.134,6.759 L16.913,5.809 Z M38.139,8.009 L29.969,16.728 L27.844,16.728 L19.674,8.009 L38.139,8.009 Z M18.851,8.97 L25.7,16.28 L18.849,22.325 L18.851,8.97 Z M15.542,31.2601284 C8.80523484,31.2904659 3.29747313,25.8959445 3.188,19.16 C3.18580077,18.8147283 2.90527871,18.535993 2.56,18.536 L2.017,18.536 L4.352,15.878 L6.769,18.69 L6.226,18.69 C5.87916518,18.69 5.598,18.9711652 5.598,19.318 C5.5979784,19.3538566 5.60098912,19.3896508 5.607,19.425 C6.61521386,25.115513 11.5860918,29.2455101 17.365,29.194 C20.6426722,29.1986315 23.77945,27.8616797 26.046,25.494 C23.7540157,29.0776248 19.7968773,31.2496616 15.543,31.259 L15.542,31.2601284 Z M19.884,23.091 L26.561,17.2 L27.111,17.787 C27.2294939,17.9140581 27.3952638,17.9864468 27.569,17.987 L30.24,17.987 C30.4137362,17.9864468 30.5795061,17.9140581 30.698,17.787 L31.248,17.2 L37.925,23.091 L19.884,23.091 Z M38.96,22.327 L32.11,16.28 L38.961,8.969 L38.96,22.327 Z"/>
</svg>
