<svg id="icon-exclusive-benefit" width="32" height="30" viewBox="0 0 32 30" xmlns="http://www.w3.org/2000/svg">
  <path d="m6.195 0.5c-0.1826 0-0.3262 0.09872-0.4052 0.2244l-5.727 9.11c-0.09045 0.1439-0.08491 0.4074 0.03117 0.5535l14.88 18.76c0.1278 0.1612 0.2491 0.3057 0.4538 0.3266 0.2104 0.02148 0.3858-0.07754 0.5174-0.2431l3.072-3.866c0.164-0.207 0.1294-0.5076-0.07729-0.6719-0.2068-0.1651-0.5084-0.131-0.6732 0.07605l-1.568 1.975 0.8627-2.91c0.07571-0.2537-0.06897-0.5207-0.3229-0.5959-0.2537-0.07571-0.5207 0.06897-0.5959 0.3229l-1.162 3.924-5.013-16.92h10.06l-2.231 6.567c-0.08496 0.2503 0.04897 0.522 0.2992 0.6071 0.2503 0.08496 0.522-0.04897 0.6071-0.2992l2.335-6.875h8.022l-2.572 3.235c-0.1648 0.2072-0.1302 0.5088 0.07729 0.6732 0.2072 0.1648 0.5088 0.1302 0.6732-0.07729l3.188-4.012c0.149-0.1875 0.133-0.3897 0.02992-0.5535l-5.73-9.11c-0.103-0.1637-0.2571-0.2244-0.4052-0.2244zm0.7118 0.9574h7.666l-4.716 7.664zm9.531 0h7.663l-2.948 7.663zm-0.9325 0.3117 4.826 7.843h-9.651zm-9.403 0.2568 2.917 7.586h-7.684zm18.8 0.00124 4.771 7.585h-7.688zm-23.45 8.542h8.005l4.76 16.07zm21.63 4.555c-0.1557-0.0069-0.3157 0.01626-0.4675 0.07729-0.3036 0.1221-0.5453 0.3652-0.7467 0.6881-0.4028 0.6457-0.3818 1.356-0.05485 1.845 0.2234 0.3338 0.5375 0.5758 0.8814 0.7679h-3.266c-0.2644 2.7e-5 -0.4787 0.2143-0.4787 0.4787v2.816c2.7e-5 0.2644 0.2143 0.4787 0.4787 0.4787h0.5485v6.738c2.6e-5 0.2644 0.2143 0.4787 0.4787 0.4787h10.04c0.2644-2.6e-5 0.4787-0.2143 0.4787-0.4787v-6.738h0.5485c0.2644-2.6e-5 0.4787-0.2143 0.4787-0.4787v-2.816c-2.6e-5 -0.2644-0.2143-0.4787-0.4787-0.4787h-3.269c0.3443-0.1923 0.6588-0.4338 0.8826-0.7679 0.2918-0.4356 0.2907-1.047 0.01246-1.633-0.0047-0.07474-0.02693-0.1473-0.06482-0.2119-0.2015-0.3229-0.4444-0.5661-0.748-0.6881-0.3036-0.122-0.6406-0.09059-0.9088 0.02369-0.5364 0.2286-0.9087 0.7014-1.248 1.208-0.275 0.4107-0.5138 0.8552-0.7031 1.243-0.189-0.3876-0.4259-0.8323-0.7006-1.243-0.339-0.5066-0.7116-0.9794-1.248-1.208-0.1341-0.05716-0.2856-0.09409-0.4413-0.101zm-0.0374 0.9512c0.02546 0.0017 0.05633 0.01107 0.1035 0.03117 0.1885 0.08038 0.5323 0.4192 0.8265 0.8589 0.3312 0.495 0.3995 0.7401 0.5909 1.163-0.3861-0.08356-0.5567-0.07568-1.005-0.2668-0.4397-0.1875-0.8032-0.4384-0.9512-0.6595-0.148-0.2211-0.1937-0.3841 0.06981-0.8066 0.1318-0.2113 0.2394-0.2839 0.293-0.3054 0.02679-0.01077 0.04684-0.01668 0.0723-0.01496zm4.857 0c0.02543-0.0017 0.04544 0.0041 0.07231 0.01496 0.05373 0.02159 0.1611 0.09412 0.293 0.3054 0.2631 0.4223 0.218 0.5853 0.06981 0.8066-0.1482 0.2213-0.5126 0.4719-0.9524 0.6595-0.4479 0.1909-0.6188 0.182-1.005 0.2655 0.1915-0.423 0.2597-0.6673 0.5909-1.162 0.2944-0.4397 0.639-0.7785 0.8278-0.8589 0.0472-0.02011 0.07804-0.02944 0.1035-0.03117zm-7.995 3.385h5.088v1.859h-5.088zm6.045 0h5.088v1.859h-5.088zm-5.018 2.817h4.06v6.258h-4.06zm5.018 0h4.06v6.258h-4.06z"/>
</svg>
